<mxfile host="app.diagrams.net" modified="2020-09-29T06:36:29.877Z" agent="5.0 (Windows NT 10.0; WOW64) AppleWebKit/537.36 (KHTML, like Gecko) Chrome/68.0.3440.75 Safari/537.36" etag="NT5PnkMeQSejDZr6WxDg" version="13.7.6" type="github">
  <diagram name="Page-1" id="e7e014a7-5840-1c2e-5031-d8a46d1fe8dd">
    <mxGraphModel dx="2207" dy="588" grid="1" gridSize="10" guides="1" tooltips="1" connect="1" arrows="1" fold="1" page="1" pageScale="1" pageWidth="1169" pageHeight="826" background="#ffffff" math="0" shadow="0">
      <root>
        <mxCell id="0" />
        <mxCell id="1" parent="0" />
        <mxCell id="JxEpCtXcpU_dRj38K4oi-61" value="华师傅-订单管理-待受理" style="swimlane;whiteSpace=wrap" vertex="1" parent="1">
          <mxGeometry x="164.5" y="128" width="280" height="570" as="geometry" />
        </mxCell>
        <mxCell id="JxEpCtXcpU_dRj38K4oi-62" value="订单列表查询" style="" vertex="1" parent="JxEpCtXcpU_dRj38K4oi-61">
          <mxGeometry x="60" y="110" width="110" height="50" as="geometry" />
        </mxCell>
        <mxCell id="JxEpCtXcpU_dRj38K4oi-63" value="订单详情页" style="" vertex="1" parent="JxEpCtXcpU_dRj38K4oi-61">
          <mxGeometry x="60" y="182" width="110" height="50" as="geometry" />
        </mxCell>
        <mxCell id="JxEpCtXcpU_dRj38K4oi-64" value="询单失败" style="" vertex="1" parent="JxEpCtXcpU_dRj38K4oi-61">
          <mxGeometry x="60" y="272" width="110" height="50" as="geometry" />
        </mxCell>
        <mxCell id="JxEpCtXcpU_dRj38K4oi-65" value="询单成功" style="" vertex="1" parent="JxEpCtXcpU_dRj38K4oi-61">
          <mxGeometry x="60" y="352" width="110" height="50" as="geometry" />
        </mxCell>
        <mxCell id="JxEpCtXcpU_dRj38K4oi-66" value="询单异常原因查询" style="" vertex="1" parent="JxEpCtXcpU_dRj38K4oi-61">
          <mxGeometry x="60" y="432" width="110" height="50" as="geometry" />
        </mxCell>
        <mxCell id="JxEpCtXcpU_dRj38K4oi-67" value="订单管理-待揽收" style="swimlane;whiteSpace=wrap" vertex="1" parent="1">
          <mxGeometry x="444.5" y="128" width="280" height="570" as="geometry" />
        </mxCell>
        <mxCell id="JxEpCtXcpU_dRj38K4oi-68" value="订单管理-全部" style="swimlane;whiteSpace=wrap" vertex="1" parent="1">
          <mxGeometry x="724.5" y="128" width="280" height="570" as="geometry" />
        </mxCell>
        <mxCell id="JxEpCtXcpU_dRj38K4oi-69" value="订单列表查询" style="" vertex="1" parent="JxEpCtXcpU_dRj38K4oi-68">
          <mxGeometry x="90" y="101" width="110" height="50" as="geometry" />
        </mxCell>
        <mxCell id="JxEpCtXcpU_dRj38K4oi-70" value="OMS" style="swimlane;whiteSpace=wrap;startSize=12;" vertex="1" parent="1">
          <mxGeometry x="-120" y="128" width="284.5" height="578" as="geometry" />
        </mxCell>
        <mxCell id="JxEpCtXcpU_dRj38K4oi-71" value="" style="ellipse;shape=startState;fillColor=#000000;strokeColor=#ff0000;" vertex="1" parent="JxEpCtXcpU_dRj38K4oi-70">
          <mxGeometry x="100" y="40" width="30" height="30" as="geometry" />
        </mxCell>
        <mxCell id="JxEpCtXcpU_dRj38K4oi-72" value="" style="edgeStyle=elbowEdgeStyle;elbow=horizontal;verticalAlign=bottom;endArrow=open;endSize=8;strokeColor=#FF0000;endFill=1;rounded=0" edge="1" parent="JxEpCtXcpU_dRj38K4oi-70" source="JxEpCtXcpU_dRj38K4oi-71" target="JxEpCtXcpU_dRj38K4oi-73">
          <mxGeometry x="100" y="40" as="geometry">
            <mxPoint x="115" y="110" as="targetPoint" />
          </mxGeometry>
        </mxCell>
        <mxCell id="JxEpCtXcpU_dRj38K4oi-73" value="" style="" vertex="1" parent="JxEpCtXcpU_dRj38K4oi-70">
          <mxGeometry x="60" y="110" width="110" height="50" as="geometry" />
        </mxCell>
        <mxCell id="JxEpCtXcpU_dRj38K4oi-74" value="" style="" vertex="1" parent="JxEpCtXcpU_dRj38K4oi-70">
          <mxGeometry x="60" y="212" width="110" height="45" as="geometry" />
        </mxCell>
        <mxCell id="JxEpCtXcpU_dRj38K4oi-75" value="" style="" vertex="1" parent="JxEpCtXcpU_dRj38K4oi-70">
          <mxGeometry x="60" y="325" width="110" height="50" as="geometry" />
        </mxCell>
        <mxCell id="JxEpCtXcpU_dRj38K4oi-76" value="订单列表查询" style="" vertex="1" parent="1">
          <mxGeometry x="529.5" y="229" width="110" height="50" as="geometry" />
        </mxCell>
        <mxCell id="JxEpCtXcpU_dRj38K4oi-77" value="揽件详情页" style="" vertex="1" parent="1">
          <mxGeometry x="529.5" y="301" width="110" height="50" as="geometry" />
        </mxCell>
        <mxCell id="JxEpCtXcpU_dRj38K4oi-78" value="揽件失败" style="" vertex="1" parent="1">
          <mxGeometry x="529.5" y="391" width="110" height="50" as="geometry" />
        </mxCell>
        <mxCell id="JxEpCtXcpU_dRj38K4oi-79" value="揽件成功" style="" vertex="1" parent="1">
          <mxGeometry x="529.5" y="471" width="110" height="50" as="geometry" />
        </mxCell>
        <mxCell id="JxEpCtXcpU_dRj38K4oi-80" value="揽件异常原因查询" style="" vertex="1" parent="1">
          <mxGeometry x="529.5" y="551" width="110" height="50" as="geometry" />
        </mxCell>
      </root>
    </mxGraphModel>
  </diagram>
</mxfile>
